<svg width="413" height="207" viewBox="0 0 413 207" fill="none" xmlns="http://www.w3.org/2000/svg">
<path d="M393.974 131.791C403.974 131.791 412.724 140.541 412.724 150.541C412.724 155.541 410.849 159.916 407.724 163.666C405.849 165.541 365.224 206.791 306.474 206.791C263.349 206.791 231.474 174.916 231.474 131.791V128.666C190.849 161.166 145.224 194.291 87.7238 194.291C42.0988 194.291 0.223755 162.416 0.223755 113.041C0.223755 51.791 59.5988 0.54097 118.974 0.54097C142.099 0.54097 156.474 7.41598 158.974 8.66599C165.849 12.416 168.974 19.291 168.974 25.541C168.974 36.791 159.599 44.291 150.224 44.291C138.974 44.291 140.224 38.041 118.974 38.041C78.3488 38.041 37.7238 75.541 37.7238 113.041C37.7238 138.666 58.3488 156.791 87.7238 156.791C138.349 156.791 183.974 118.666 232.099 79.916C263.349 54.291 291.474 29.916 319.599 20.541C320.849 19.916 322.724 19.291 324.599 19.291C333.349 19.291 343.974 26.166 343.974 38.041C343.974 44.916 340.224 51.166 333.349 54.916C328.974 56.791 268.974 85.541 268.974 131.791C268.974 154.916 283.349 169.291 306.474 169.291C360.849 169.291 372.724 131.791 393.974 131.791Z" fill="#FEFEFE"/>
</svg>
