<svg width="413" height="207" viewBox="0 0 413 207" fill="none" xmlns="http://www.w3.org/2000/svg">
<path d="M393.927 132C403.927 132 412.677 140.75 412.677 150.75C412.677 155.75 410.802 160.125 407.677 163.875C405.802 165.75 365.177 207 306.427 207C263.302 207 231.427 175.125 231.427 132V128.875C190.802 161.375 145.177 194.5 87.6768 194.5C42.0518 194.5 0.176758 162.625 0.176758 113.25C0.176758 52 59.5518 0.749985 118.927 0.749985C142.052 0.749985 156.427 7.625 158.927 8.875C165.802 12.625 168.927 19.5 168.927 25.75C168.927 37 159.552 44.5 150.177 44.5C138.927 44.5 140.177 38.25 118.927 38.25C78.3018 38.25 37.6768 75.75 37.6768 113.25C37.6768 138.875 58.3018 157 87.6768 157C138.302 157 183.927 118.875 232.052 80.125C263.302 54.5 291.427 30.125 319.552 20.75C320.802 20.125 322.677 19.5 324.552 19.5C333.302 19.5 343.927 26.375 343.927 38.25C343.927 45.125 340.177 51.375 333.302 55.125C328.927 57 268.927 85.75 268.927 132C268.927 155.125 283.302 169.5 306.427 169.5C360.802 169.5 372.677 132 393.927 132Z" fill="black"/>
</svg>
